<?xml version="1.0" encoding="UTF-8"?>
<svg xmlns="http://www.w3.org/2000/svg" xmlns:xlink="http://www.w3.org/1999/xlink" viewBox="0 0 64 64" width="64px" height="64px">
<g id="surface12218844">
<path style=" stroke:none;fill-rule:nonzero;fill:rgb(100%,100%,100%);fill-opacity:1;" d="M 15 10 C 12.265625 10 10 12.265625 10 15 L 10 49 C 10 51.734375 12.265625 54 15 54 L 49 54 C 51.734375 54 54 51.734375 54 49 L 54 15 C 54 12.265625 51.734375 10 49 10 Z M 15 14 L 49 14 C 49.570312 14 50 14.429688 50 15 L 50 49 C 50 49.570312 49.570312 50 49 50 L 15 50 C 14.429688 50 14 49.570312 14 49 L 14 15 C 14 14.429688 14.429688 14 15 14 Z M 20.875 17.4375 C 18.976562 17.4375 17.4375 18.976562 17.4375 20.875 C 17.4375 22.773438 18.976562 24.3125 20.875 24.3125 C 22.773438 24.3125 24.3125 22.773438 24.3125 20.875 C 24.3125 18.976562 22.773438 17.4375 20.875 17.4375 Z M 38.9375 26.5625 C 36.070312 26.5625 34.164062 28.132812 33.375 29.625 L 33.25 29.625 L 33.25 27 L 27.625 27 L 27.625 46 L 33.5 46 L 33.5 36.625 C 33.5 34.148438 33.992188 31.75 37.0625 31.75 C 40.085938 31.75 40.125 34.546875 40.125 36.75 L 40.125 46 L 46 46 L 46 35.5625 C 46 30.453125 44.914062 26.5625 38.9375 26.5625 Z M 18 27 L 18 46 L 23.9375 46 L 23.9375 27 Z M 18 27 "/>
</g>
</svg>
